<svg width="59" height="81" viewBox="0 0 59 81" fill="none" xmlns="http://www.w3.org/2000/svg">
<path d="M2.88354 27.262C1.89627 26.8137 1.04162 26.466 0.345872 26.2044C0.198481 25.1077 0.0930645 24.0089 0.0248312 22.9068C-0.0280687 21.9994 0.00451687 21.1036 0.113383 20.2225C0.705632 20.3199 1.54552 20.4673 2.59144 20.67C2.48871 21.9168 2.47912 23.2307 2.59144 24.6188C2.66235 25.5052 2.75915 26.3871 2.88354 27.262V27.262ZM12.6395 33.0224C10.1439 31.1922 7.80093 29.7721 5.76505 28.6849C5.35259 26.1481 5.1755 23.6347 5.33171 21.2418C7.21483 21.6577 9.4393 22.1938 11.8884 22.8748C11.7255 26.0743 12.0264 29.5158 12.6395 33.0224V33.0224ZM38.2628 34.3573C38.2393 34.6339 38.2067 34.9137 38.177 35.1938C34.7678 36.974 31.3763 39.3723 28.3267 42.6078C27.3396 43.6537 26.4409 44.7025 25.6188 45.7484C24.6971 44.5821 23.7119 43.4001 22.6666 42.2128C22.1981 41.682 21.7295 41.1669 21.2555 40.6658C20.4718 35.4174 19.9729 30.238 19.8815 25.3847C25.9487 27.539 32.4992 30.4619 38.2628 34.3573V34.3573Z" fill="#2AC64B"/>
<path d="M3.62836 15.5699C3.11853 17.117 2.74727 18.8169 2.59183 20.6701C1.54571 20.4673 0.706027 20.3199 0.113586 20.2226C0.18067 19.6688 0.27861 19.1205 0.40511 18.5815C1.14743 17.7823 2.22326 16.7248 3.62836 15.5699V15.5699Z" fill="#008A5A"/>
<path d="M15.5008 8.88126C13.7062 12.1727 12.268 16.6069 11.9055 22.5267C11.8996 22.6417 11.894 22.7594 11.8881 22.8742C9.43897 22.1934 7.21452 21.6579 5.33197 21.242C5.33485 21.1623 5.34079 21.0858 5.34616 21.0061C5.57961 17.9032 6.49574 15.0573 7.88053 12.529C10.0226 11.206 12.5595 9.92124 15.5008 8.88126Z" fill="#009550"/>
<path d="M38.2629 34.3573C32.4993 30.4619 25.9487 27.539 19.8815 25.3847C19.7646 19.6036 20.215 14.2883 21.411 9.88575C21.4436 9.7648 21.476 9.64444 21.5119 9.52618C26.3234 12.3699 32.5934 15.5405 38.5456 16.9341C39.0642 22.1817 38.908 28.1454 38.2629 34.3573Z" fill="#00983E"/>
<path d="M58.6942 22.9068C58.5468 25.3492 58.1994 27.7658 57.6571 30.1817C56.97 30.208 56.1803 30.2526 55.3027 30.3291C55.6887 28.4669 55.972 26.5609 56.1276 24.619C56.6495 18.0866 54.5393 13.1094 52.0971 9.63527C52.8132 9.83882 53.4907 10.0389 54.1241 10.2336C56.8673 13.7105 58.9831 18.1773 58.6942 22.9068V22.9068ZM52.595 30.6444C50.6828 30.9183 48.5252 31.3455 46.248 31.9966C46.7699 28.7174 46.9965 25.5144 46.8132 22.5264C46.3981 15.7115 44.5535 10.8667 42.3823 7.46368C44.4237 7.79968 46.3596 8.19738 48.1453 8.61579C50.9952 11.9811 53.0102 16.1793 53.3726 21.0065C53.6024 24.0823 53.2726 27.3623 52.595 30.6444V30.6444Z" fill="#009A37"/>
<path d="M38.5454 16.9341C32.5932 15.5405 26.3232 12.3699 21.5118 9.52616C21.7654 8.64565 22.05 7.84372 22.3624 7.11634C23.2441 6.96608 24.1514 6.84245 25.0858 6.74777C28.8454 6.36501 32.5993 6.40028 36.1735 6.69429C36.5948 7.62598 36.9809 8.68359 37.3082 9.88572C37.8911 12.0339 38.298 14.3999 38.5454 16.9341V16.9341Z" fill="#00863F"/>
<path d="M12.8483 3.52112C12.6509 3.64225 6.25708 7.57889 3.62818 15.5697C2.22308 16.7244 1.14745 17.7826 0.405701 18.5813C2.14335 11.0434 9.08283 4.88559 12.8483 3.52112V3.52112ZM16.894 6.62994C16.4139 7.31361 15.9454 8.06207 15.5004 8.88164C12.5598 9.92143 10.023 11.2062 7.88089 12.5294C9.51926 9.52315 11.8202 6.96325 14.4159 4.93274C15.0319 5.37165 15.8743 5.95508 16.894 6.62994V6.62994Z" fill="#06CBF6"/>
<path d="M54.1243 10.2336C53.4906 10.0389 52.8131 9.83862 52.097 9.63526C49.2119 5.52823 45.865 3.51803 45.865 3.51803C48.0862 4.31996 51.4127 6.79533 54.1243 10.2336V10.2336ZM48.145 8.61578C46.3593 8.19718 44.4234 7.79966 42.3822 7.46367C38.7194 1.71215 34.1196 0.079348 33.8958 0.00287312C38.8283 0.990146 44.2619 4.03073 48.145 8.61578ZM36.1737 6.6947C32.5995 6.39973 28.8455 6.36466 25.086 6.74799C24.1516 6.8421 23.2441 6.96573 22.3624 7.11657C25.0028 0.890478 29.2992 0 29.2992 0H29.4202C29.4202 0 33.5218 0.848498 36.1737 6.6947V6.6947ZM24.8236 0.0030603C24.6113 0.0766602 20.4502 1.55288 16.8936 6.63012C15.8747 5.95526 15.0322 5.37183 14.4156 4.93291C17.6597 2.3987 21.3644 0.695359 24.8236 0.0030603V0.0030603Z" fill="url(#paint0_linear_26_43)"/>
<path d="M29.3592 80.7893H33.7746L35.4082 73.6612H23.311L24.9446 80.7893H29.3592Z" fill="#666565"/>
<path fill-rule="evenodd" clip-rule="evenodd" d="M12.6831 48.8807C13.5324 50.6373 14.3426 52.2047 15.0403 53.5131C16.237 55.7525 17.3744 57.6551 18.5476 59.3882C18.8862 58.2008 19.3096 56.9487 19.8376 55.6517C18.9268 53.5631 18.0134 51.3202 17.1451 48.9834C15.2561 43.9069 13.5792 38.3854 12.64 33.0222C10.1443 31.1925 7.80142 29.7725 5.76477 28.6854C6.93183 35.9047 9.99885 43.3383 12.6831 48.8807V48.8807Z" fill="url(#paint1_linear_26_43)"/>
<path fill-rule="evenodd" clip-rule="evenodd" d="M8.69405 48.7894C9.17475 49.6291 9.67496 50.4744 10.1936 51.3263C12.6184 55.3015 15.4183 58.973 17.9107 61.9548C17.9843 61.5923 18.0702 61.2205 18.1648 60.8412C17.1561 59.4559 16.1723 58.0473 15.3263 56.7417C14.1126 54.8741 12.3566 52.1662 10.5269 48.8333C7.39165 43.1171 4.04479 35.5625 2.88367 27.262C1.89659 26.8137 1.04194 26.4668 0.346191 26.2044C1.34822 33.6476 4.1941 40.9514 8.69405 48.7894V48.7894Z" fill="url(#paint2_linear_26_43)"/>
<path fill-rule="evenodd" clip-rule="evenodd" d="M21.6944 43.4356C22.0095 45.3153 22.378 47.2248 22.7755 49.1106C22.8141 49.2904 22.852 49.4696 22.8905 49.6494C23.6856 48.362 24.591 47.0564 25.6187 45.7488C24.666 44.5442 23.6817 43.365 22.6667 42.2124C22.1988 41.6822 21.7296 41.167 21.2556 40.666C21.3934 41.5883 21.5376 42.5106 21.6944 43.4356Z" fill="url(#paint3_linear_26_43)"/>
<path fill-rule="evenodd" clip-rule="evenodd" d="M55.3026 30.3291C54.1794 35.783 52.2009 40.8349 50.0973 45.1545C50.5223 45.5817 50.9378 46.0078 51.3395 46.4291C54.3375 40.856 56.4683 35.5238 57.657 30.1815C56.9701 30.2087 56.1803 30.2519 55.3026 30.3291ZM46.2483 31.9972C45.837 34.6012 45.2424 37.2527 44.5256 39.8816C45.7649 40.9995 47.1211 42.2519 48.4534 43.537C50.1199 39.5569 51.678 35.0966 52.5953 30.644C50.6825 30.9187 48.5255 31.3459 46.2483 31.9972V31.9972Z" fill="#97CC1A"/>
<path fill-rule="evenodd" clip-rule="evenodd" d="M28.3267 42.6072C27.3396 43.6534 26.4409 44.7027 25.6187 45.7488C29.2043 50.2804 31.8718 54.5881 33.8016 58.1914C34.5033 55.4813 35.2309 52.4813 35.8814 49.4081C36.3033 47.425 36.6922 45.4153 37.0247 43.4356C37.4907 40.6714 37.8796 37.9108 38.177 35.194C34.7679 36.9736 31.3769 39.3727 28.3267 42.6072V42.6072ZM50.0973 45.1545C50.0168 45.3199 49.9361 45.4841 49.8552 45.6473C47.4759 50.45 44.9735 54.3067 43.3928 56.7417C41.5685 59.5505 39.1114 62.842 37.1635 65.3607C37.2344 65.5466 37.302 65.7203 37.3668 65.8853C40.3833 62.6 44.8804 57.305 48.5255 51.3263C49.4397 49.8258 50.2961 48.3467 51.093 46.8847C51.176 46.7325 51.2578 46.5809 51.3395 46.4291C50.9378 46.0078 50.5223 45.5817 50.0973 45.1545ZM44.5256 39.8815L44.4311 40.2244C42.12 48.5706 38.5996 56.6568 35.8138 62.2287C36.1174 62.8913 36.3913 63.5081 36.6333 64.0733C39.2061 61.0116 41.3265 57.9114 43.6788 53.5131C44.971 51.0914 46.6462 47.7909 48.243 44.0353L48.4534 43.537C47.1211 42.2519 45.7649 40.9995 44.5256 39.8815Z" fill="url(#paint4_linear_26_43)"/>
<path fill-rule="evenodd" clip-rule="evenodd" d="M31.6824 69.4919C33.5629 67.544 35.1721 65.8144 36.6334 64.0733C36.3913 63.5081 36.1174 62.8913 35.8138 62.2287C33.8402 66.1774 32.2308 68.8638 31.6824 69.4919V69.4919Z" fill="url(#paint5_linear_26_43)"/>
<path fill-rule="evenodd" clip-rule="evenodd" d="M33.9903 69.3771C34.0903 69.2797 35.4224 67.9984 37.3669 65.8853C37.3021 65.7203 37.2345 65.5466 37.1635 65.3607C35.4224 67.6156 34.093 69.2532 33.9903 69.3771V69.3771Z" fill="url(#paint6_linear_26_43)"/>
<path fill-rule="evenodd" clip-rule="evenodd" d="M22.8905 49.6495C25.1123 60.042 28.1584 69.5745 28.1584 69.5745H30.5608C30.5608 69.5745 32.1071 64.7332 33.8017 58.1915C31.8718 54.5882 29.2044 50.2804 25.6187 45.7489C24.591 47.0564 23.6855 48.3621 22.8905 49.6495Z" fill="url(#paint7_linear_26_43)"/>
<path fill-rule="evenodd" clip-rule="evenodd" d="M18.5475 59.3882C20.9756 62.9948 23.5355 65.8623 27.0366 69.4919C26.2205 68.5583 23.0615 63.0686 19.8376 55.6517C19.3096 56.9487 18.8862 58.2008 18.5475 59.3882Z" fill="url(#paint8_linear_26_43)"/>
<path fill-rule="evenodd" clip-rule="evenodd" d="M17.9106 61.9548C21.5761 66.3418 24.5789 69.2297 24.7317 69.3771C24.5701 69.177 21.2615 65.1104 18.1648 60.8412C18.0701 61.2205 17.9842 61.5923 17.9106 61.9548V61.9548Z" fill="url(#paint9_linear_26_43)"/>
<defs>
<linearGradient id="paint0_linear_26_43" x1="16.1816" y1="4.59961" x2="51.7763" y2="5.67831" gradientUnits="userSpaceOnUse">
<stop stop-color="#0288F7"/>
<stop offset="1" stop-color="#2EE2BD"/>
</linearGradient>
<linearGradient id="paint1_linear_26_43" x1="18.9152" y1="56.7421" x2="10.1594" y2="35.0901" gradientUnits="userSpaceOnUse">
<stop stop-color="#CB1918"/>
<stop offset="0.388" stop-color="#A2183D"/>
<stop offset="0.749" stop-color="#902869"/>
<stop offset="1" stop-color="#73358A"/>
</linearGradient>
<linearGradient id="paint2_linear_26_43" x1="14.4912" y1="58.5312" x2="5.73527" y2="36.8791" gradientUnits="userSpaceOnUse">
<stop stop-color="#CB1918"/>
<stop offset="0.388" stop-color="#A2183D"/>
<stop offset="0.749" stop-color="#902869"/>
<stop offset="1" stop-color="#73358A"/>
</linearGradient>
<linearGradient id="paint3_linear_26_43" x1="26.6472" y1="53.6154" x2="17.8913" y2="31.9632" gradientUnits="userSpaceOnUse">
<stop stop-color="#CB1918"/>
<stop offset="0.388" stop-color="#A2183D"/>
<stop offset="0.749" stop-color="#902869"/>
<stop offset="1" stop-color="#73358A"/>
</linearGradient>
<linearGradient id="paint4_linear_26_43" x1="44.0577" y1="40.8257" x2="31.3516" y2="54.7046" gradientUnits="userSpaceOnUse">
<stop stop-color="#ADD816"/>
<stop offset="1" stop-color="#DBD704"/>
</linearGradient>
<linearGradient id="paint5_linear_26_43" x1="35.0328" y1="68.0259" x2="24.2167" y2="49.7857" gradientUnits="userSpaceOnUse">
<stop stop-color="#E1282B"/>
<stop offset="0.388" stop-color="#E3402A"/>
<stop offset="0.702" stop-color="#E76226"/>
<stop offset="1" stop-color="#F19A0A"/>
</linearGradient>
<linearGradient id="paint6_linear_26_43" x1="35.7235" y1="67.6162" x2="24.9074" y2="49.3761" gradientUnits="userSpaceOnUse">
<stop stop-color="#E1282B"/>
<stop offset="0.388" stop-color="#E3402A"/>
<stop offset="0.702" stop-color="#E76226"/>
<stop offset="1" stop-color="#F19A0A"/>
</linearGradient>
<linearGradient id="paint7_linear_26_43" x1="33.8847" y1="68.7067" x2="23.0685" y2="50.4666" gradientUnits="userSpaceOnUse">
<stop stop-color="#E1282B"/>
<stop offset="0.388" stop-color="#E3402A"/>
<stop offset="0.702" stop-color="#E76226"/>
<stop offset="1" stop-color="#F19A0A"/>
</linearGradient>
<linearGradient id="paint8_linear_26_43" x1="27.9225" y1="72.2421" x2="17.1064" y2="54.002" gradientUnits="userSpaceOnUse">
<stop stop-color="#E1282B"/>
<stop offset="0.388" stop-color="#E3402A"/>
<stop offset="0.702" stop-color="#E76226"/>
<stop offset="1" stop-color="#F19A0A"/>
</linearGradient>
<linearGradient id="paint9_linear_26_43" x1="25.9239" y1="73.4274" x2="15.1078" y2="55.187" gradientUnits="userSpaceOnUse">
<stop stop-color="#E1282B"/>
<stop offset="0.388" stop-color="#E3402A"/>
<stop offset="0.702" stop-color="#E76226"/>
<stop offset="1" stop-color="#F19A0A"/>
</linearGradient>
</defs>
</svg>
