<svg width="121" height="121" viewBox="0 0 121 121" fill="none" xmlns="http://www.w3.org/2000/svg">
<g opacity="0.783">
<path d="M49.4123 5.06398L5.26635 50.2815C-11.4491 66.9969 16.0885 65.604 26.0535 71.9259C30.661 74.9261 11.2668 78.7835 15.2313 82.7481C19.0888 86.7126 38.483 90.3557 42.3404 94.2132C46.1978 98.1777 34.5184 102.357 38.3758 106.321C42.1261 110.286 51.1267 106.535 52.734 115.536C53.9126 122.179 69.2352 118.858 76.0928 113.179C80.3788 109.536 68.6994 109.536 72.5568 105.571C82.2004 95.8204 90.7724 101.178 94.3084 92.1773C96.2371 87.3555 79.7359 83.9267 84.1291 80.8194C94.6298 73.426 133.204 69.6757 115.417 51.8887L69.6638 5.06398C63.9848 -0.293543 54.6627 -0.293543 49.4123 5.06398ZM100.094 92.1773C100.094 94.4275 117.56 95.7133 116.596 91.6415C115.203 84.7839 102.023 85.3197 100.094 92.1773ZM25.6249 104.071C29.5895 107.5 35.5899 103.321 37.5186 98.4992C33.6612 93.4631 19.4102 98.8206 25.6249 104.071ZM97.9515 96.8919C93.0226 101.392 98.8087 106.107 103.63 102.999C104.916 102.142 103.523 97.9634 97.9515 96.8919Z" fill="black"/>
<path opacity="0.576" d="M49.4123 6.11079L5.26635 51.3283C-11.4491 68.0438 16.0885 66.6508 26.0535 72.9727C30.661 75.9729 11.2668 79.8303 15.2313 83.7949C19.0888 87.7594 38.483 91.4025 42.3404 95.26C46.1978 99.2245 34.5184 103.403 38.3758 107.368C42.1261 111.333 51.1267 107.582 52.734 116.583C53.9126 123.226 69.2352 119.905 76.0928 114.226C80.3788 110.582 68.6994 110.582 72.5568 106.618C82.2004 96.8672 90.7724 102.225 94.3084 93.2241C96.2371 88.4023 79.7359 84.9735 84.1291 81.8662C94.6298 74.4728 133.204 70.7225 115.417 52.9355L69.6638 6.11079C63.9848 0.753271 54.6627 0.753271 49.4123 6.11079V6.11079ZM100.094 93.2241C100.094 95.4743 117.56 96.7601 116.596 92.6884C115.203 85.8307 102.023 86.3665 100.094 93.2241ZM25.6249 105.118C29.5895 108.547 35.5899 104.368 37.5186 99.546C33.6612 94.5099 19.4102 99.8674 25.6249 105.118ZM97.9515 97.9387C93.0226 102.439 98.8087 107.154 103.63 104.046C104.916 103.189 103.523 99.0102 97.9515 97.9387Z" fill="black"/>
</g>
<path d="M49.4123 4.01814L5.26635 49.2356C-11.4491 65.9511 16.0885 64.5581 26.0535 70.88C30.661 73.8802 11.2668 77.7376 15.2313 81.7022C19.0888 85.6668 38.483 89.3099 42.3404 93.1673C46.1978 97.1319 34.5184 101.311 38.3758 105.275C42.1261 109.24 51.1267 105.49 52.734 114.49C53.9126 121.134 69.2352 117.812 76.0928 112.133C80.3788 108.49 68.6994 108.49 72.5568 104.525C82.2004 94.7746 90.7724 100.132 94.3084 91.1315C96.2371 86.3097 79.7359 82.8809 84.1291 79.7735C94.6298 72.3801 133.204 68.6299 115.417 50.8429L69.6638 4.01814C63.9848 -1.33938 54.6627 -1.33938 49.4123 4.01814ZM100.094 91.1315C100.094 93.3816 117.56 94.6674 116.596 90.5957C115.203 83.7381 102.023 84.2738 100.094 91.1315ZM25.6249 103.025C29.5895 106.454 35.5899 102.275 37.5186 97.4533C33.6612 92.4173 19.4102 97.7748 25.6249 103.025ZM97.9515 95.8461C93.0226 100.346 98.8087 105.061 103.63 101.954C104.916 101.096 103.523 96.9176 97.9515 95.8461Z" fill="black"/>
<path opacity="0.67" d="M49.5122 4.5386L5.78382 49.3283C-10.7735 65.8857 16.5036 64.5059 26.3744 70.768C30.9382 73.7398 11.7275 77.5607 15.6545 81.4878C19.4755 85.4148 38.6862 89.0235 42.5072 92.8444C46.3281 96.7715 34.7592 100.911 38.5801 104.838C42.2949 108.765 51.2104 105.05 52.8024 113.966C53.9699 120.546 69.1475 117.256 75.9402 111.631C80.1857 108.022 68.6168 108.022 72.4377 104.095C81.99 94.4365 90.481 99.7433 93.9835 90.8278C95.894 86.0517 79.5489 82.6553 83.9005 79.5773C94.3019 72.2539 132.511 68.5391 114.892 50.9204L69.572 4.5386C63.9468 -0.768238 54.7129 -0.768238 49.5122 4.5386ZM39.0046 73.2091C39.9599 73.2091 71.6948 77.4546 59.489 80.7448C54.819 82.0185 33.3794 73.2091 39.0046 73.2091ZM99.7149 90.8278C99.7149 93.0567 117.015 94.3303 116.06 90.2971C114.68 83.5044 101.625 84.0351 99.7149 90.8278ZM25.9498 102.609C29.8769 106.005 35.8205 101.866 37.731 97.0899C33.9101 92.1015 19.7939 97.4083 25.9498 102.609ZM97.5921 95.4978C92.7099 99.9556 98.4412 104.626 103.217 101.548C104.491 100.699 103.111 96.5592 97.5921 95.4978Z" fill="url(#paint0_linear_26_44)"/>
<path fill-rule="evenodd" clip-rule="evenodd" d="M17.6172 81.3281C17.6172 80.9762 39.6632 88.047 43.4395 91.8272C40.3345 88.7972 24.6204 81.8297 22.2283 81.7537C19.8362 81.6776 17.9009 81.4699 17.6172 81.3281Z" fill="url(#paint1_radial_26_44)"/>
<path fill-rule="evenodd" clip-rule="evenodd" d="M36.1705 74.7728C38.5621 76.5301 43.2821 75.4693 46.1162 76.7465C52.9203 79.81 61.2833 83.2238 59.7447 77.1794L58.0131 78.6174L57.9799 75.8776L53.9596 76.8591C53.9596 76.8591 50.8447 74.3592 49.4175 73.5352C49.1196 73.3638 47.5874 74.9207 47.5874 74.9207L47.312 73.2663C45.4206 73.0631 43.5193 72.9658 41.617 72.9749C37.4595 73.0081 34.6532 73.6585 36.1705 74.7728V74.7728Z" fill="url(#paint2_linear_26_44)"/>
<path opacity="0.586" d="M108.372 87.3083C108.372 87.4558 108.231 87.5973 107.979 87.7017C107.728 87.806 107.387 87.8646 107.031 87.8646C106.675 87.8646 106.334 87.806 106.083 87.7017C105.831 87.5973 105.69 87.4558 105.69 87.3083C105.69 87.1607 105.831 87.0192 106.083 86.9149C106.334 86.8106 106.675 86.752 107.031 86.752C107.387 86.752 107.728 86.8106 107.979 86.9149C108.231 87.0192 108.372 87.1607 108.372 87.3083V87.3083ZM99.412 97.5765C99.412 97.7241 99.3224 97.8656 99.163 97.97C99.0035 98.0743 98.7872 98.133 98.5617 98.133C98.3362 98.133 98.12 98.0743 97.9605 97.97C97.8011 97.8656 97.7115 97.7241 97.7115 97.5765C97.7115 97.4289 97.8011 97.2874 97.9605 97.183C98.12 97.0787 98.3362 97.02 98.5617 97.02C98.7872 97.02 99.0035 97.0787 99.163 97.183C99.3224 97.2874 99.412 97.4289 99.412 97.5765V97.5765ZM31.589 97.0858C31.589 97.2333 31.4305 97.3747 31.1484 97.479C30.8662 97.5833 30.4836 97.6419 30.0846 97.6419C29.6856 97.6419 29.303 97.5833 29.0208 97.479C28.7387 97.3747 28.5802 97.2333 28.5802 97.0858C28.5802 96.9383 28.7387 96.7968 29.0208 96.6925C29.303 96.5882 29.6856 96.5296 30.0846 96.5296C30.4836 96.5296 30.8662 96.5882 31.1484 96.6925C31.4305 96.7968 31.589 96.9383 31.589 97.0858V97.0858Z" fill="white"/>
<path opacity="0.363" d="M57.9454 115.789C57.9454 115.789 69.7659 114.676 72.5002 111.265C74.1002 109.27 66.1426 106.942 67.8603 104.987C74.322 97.6336 79.753 97.9402 87.2455 94.8605C94.7379 91.7809 91.9732 90.2725 89.5497 88.9205C85.3996 86.6042 76.1622 84.1367 79.2178 78.6409C82.2927 73.1105 109.221 65.4297 109.221 65.4297C117.381 62.642 116.357 57.6003 112.36 53.3957L88.2919 29.4586C88.2919 29.4586 89.4864 52.1604 84.6294 61.898C78.6276 73.9319 46.6732 87.3587 60.0383 88.8436C64.7472 89.3668 67.0075 90.973 68.9329 94.5989C72.8973 102.065 57.9454 115.789 57.9454 115.789V115.789Z" fill="url(#paint3_linear_26_44)"/>
<defs>
<linearGradient id="paint0_linear_26_44" x1="79.2507" y1="12.4989" x2="55.7743" y2="33.7262" gradientUnits="userSpaceOnUse">
<stop stop-color="#C0CDF9"/>
<stop offset="1" stop-color="#07092D" stop-opacity="0.288"/>
</linearGradient>
<radialGradient id="paint1_radial_26_44" cx="0" cy="0" r="1" gradientUnits="userSpaceOnUse" gradientTransform="translate(29.8899 84.8681) scale(12.9111 5.25586)">
<stop stop-color="white" stop-opacity="0.33"/>
<stop offset="1" stop-color="white" stop-opacity="0"/>
</radialGradient>
<linearGradient id="paint2_linear_26_44" x1="51.2723" y1="72.8377" x2="47.8638" y2="80.6479" gradientUnits="userSpaceOnUse">
<stop stop-color="#EEEEEC"/>
<stop offset="1" stop-color="#EEEEEC" stop-opacity="0"/>
</linearGradient>
<linearGradient id="paint3_linear_26_44" x1="79.8226" y1="96.1686" x2="65.6372" y2="57.9738" gradientUnits="userSpaceOnUse">
<stop stop-color="#729FCF"/>
<stop offset="1" stop-color="#729FCF" stop-opacity="0"/>
</linearGradient>
</defs>
</svg>
